/* XPM */
static char *result[] = {
/* columns rows colors chars-per-pixel */
"32 32 5 1 ",
"  c black",
". c #3E8948",
"X c #63C74D",
"o c white",
"O c None",
/* pixels */
"OOOOOOOOOOOOOOOOOOOOOOOOOOOOOOOO",
"OOOOOOOOOOOOOOOOOOOOOOOOOOOOOOOO",
"OOOO        OOOOOOOOOOOOOOOOOOOO",
"OOOO        OOOOOOOOOOOOOOOOOOOO",
"OO  XXXXXX..  OOOOOOOOOOOOOOOOOO",
"OO  XXXXXX..  OOOOOOOOOOOOOOOOOO",
"  ..XXXXXXXX..  OOOOOOOOOOOOOOOO",
"  ..XXXXXXXX..  OOOOOOOOOOOOOOOO",
"  ....XXXXXX....            OOOO",
"  ....XXXXXX....            OOOO",
"  ....  XXXX....XXXXXX....XX  OO",
"  ....  XXXX....XXXXXX....XX  OO",
"  ..    XX....XXXX..........    ",
"  ..    XX....XXXX..........    ",
"  ....  XXXXXXXX..oo  XX......  ",
"  ....  XXXXXXXX..oo  XX......  ",
"  ....  ..XXXXXXXX..  ..XXXXXX..",
"  ....  ..XXXXXXXX..  ..XXXXXX..",
"OO  ..    ..XXXXXXXXXXXXXX..  ..",
"OO  ..    ..XXXXXXXXXXXXXX..  ..",
"OOOO  ..                        ",
"OOOO  ..                        ",
"                  ......  OOOOOO",
"                  ......  OOOOOO",
"  ....              ......  OOOO",
"  ....              ......  OOOO",
"OO  ....  ....    ..XX....  OOOO",
"OO  ....  ....    ..XX....  OOOO",
"  XXXX  ......XXXXXXXX....  OOOO",
"  XXXX  ......XXXXXXXX....  OOOO",
"  ..XXXX..    ..XXXX....  OOOOOO",
"  ..XXXX..    ..XXXX....  OOOOOO"
};
