/* XPM */
static char *result[] = {
/* columns rows colors chars-per-pixel */
"32 32 9 1 ",
"  c black",
". c #F77622",
"X c #FF0044",
"o c #F6757A",
"O c #3E8948",
"+ c #63C74D",
"@ c #FEAE34",
"# c white",
"$ c None",
/* pixels */
"$$$$$$$$$$$$                $$$$",
"$$$$$$$$$$$$                $$$$",
"$$$$$$$$    OO++++++OOOOOO++  $$",
"$$$$$$$$    OO++++++OOOOOO++  $$",
"$$$$$$  OO++OO++  OO++OOOOOO    ",
"$$$$$$  OO++OO++  OO++OOOOOO    ",
"$$$$  OO++++++++OO##  ++OOOOOO  ",
"$$$$  OO++++++++OO##  ++OOOOOO  ",
"$$$$  ++++++++++++OO    ++++++OO",
"$$$$  ++++++++++++OO    ++++++OO",
"$$$$  ++++OO++++++++++++++OO  OO",
"$$$$  ++++OO++++++++++++++OO  OO",
"$$$$  ++++OOOO..        XXooXX  ",
"$$$$  ++++OOOO..        XXooXX  ",
"$$$$  OO++OO  ..        ooooXX  ",
"$$$$  OO++OO  ..        ooooXX  ",
"$$      ++++    ..        oo    ",
"$$      ++++    ..        oo    ",
"$$  @@    ++++  @@......      $$",
"$$  @@    ++++  @@......      $$",
"  ....  $$  OO++..@@......  $$$$",
"  ....  $$  OO++..@@......  $$$$",
"  @@@@  $$$$  OO++@@..  ....  $$",
"  @@@@  $$$$  OO++@@..  ....  $$",
"    OO  $$        OO@@@@....  $$",
"    OO  $$        OO@@@@....  $$",
"  OOOO    OOOOOO  OO@@..  ..  $$",
"  OOOO    OOOOOO  OO@@..  ..  $$",
"++++    OOOOOOOOOO@@@@@@....  $$",
"++++    OOOOOOOOOO@@@@@@....  $$",
"OO++++OOOO      ..@@@@....  $$$$",
"OO++++OOOO      ..@@@@....  $$$$"
};
