/* XPM */
static char *result[] = {
/* columns rows colors chars-per-pixel */
"32 32 7 1 ",
"  c black",
". c #F77622",
"X c #3E8948",
"o c #63C74D",
"O c #FEAE34",
"+ c white",
"@ c None",
/* pixels */
"@@@@@@@@@@@@                @@@@",
"@@@@@@@@@@@@                @@@@",
"@@@@@@@@    XXooooooXXXXXXoo  @@",
"@@@@@@@@    XXooooooXXXXXXoo  @@",
"@@@@@@  XXooXXoo  XXooXXXXXX    ",
"@@@@@@  XXooXXoo  XXooXXXXXX    ",
"@@@@  XXooooooooXX++  ooXXXXXX  ",
"@@@@  XXooooooooXX++  ooXXXXXX  ",
"@@@@  ooooooooooooXX    ooooooXX",
"@@@@  ooooooooooooXX    ooooooXX",
"@@@@  ooooXXooooooooooooooXX  XX",
"@@@@  ooooXXooooooooooooooXX  XX",
"@@@@  ooooXXXX..                ",
"@@@@  ooooXXXX..                ",
"@@@@  XXooXX  ..                ",
"@@@@  XXooXX  ..                ",
"    @@  oooo    ..    ..    XX  ",
"    @@  oooo    ..    ..    XX  ",
"  OO  @@  oooo  OOOO....  XX  @@",
"  OO  @@  oooo  OOOO....  XX  @@",
"  ....  @@  XXoo..OOOO....  @@@@",
"  ....  @@  XXoo..OOOO....  @@@@",
"  OOOO  @@@@  XXooOOOO....  @@@@",
"  OOOO  @@@@  XXooOOOO....  @@@@",
"@@    XX        XXOO..  ..  @@@@",
"@@    XX        XXOO..  ..  @@@@",
"@@  XXXX  XXXX  ooOOOO....  @@@@",
"@@  XXXX  XXXX  ooOOOO....  @@@@",
"  oooo  XXXXXXooOOOO..  ..  @@@@",
"  oooo  XXXXXXooOOOO..  ..  @@@@",
"  XXooooXX    ..OOOO....  @@@@@@",
"  XXooooXX    ..OOOO....  @@@@@@"
};
