/* XPM */
static char *result[] = {
/* columns rows colors chars-per-pixel */
"32 32 7 1 ",
"  c black",
". c #FF0044",
"X c #F6757A",
"o c #3E8948",
"O c #63C74D",
"+ c white",
"@ c None",
/* pixels */
"@@@@@@@@@@@@@@@@@@@@@@@@@@@@@@@@",
"@@@@@@@@@@@@@@@@@@@@@@@@@@@@@@@@",
"@@@@@@@@@@@@@@@@@@@@@@@@@@@@@@@@",
"@@@@@@@@@@@@@@@@@@@@@@@@@@@@@@@@",
"@@@@        @@@@@@@@@@@@@@@@@@@@",
"@@@@        @@@@@@@@@@@@@@@@@@@@",
"@@  OOOOOOoo  @@@@@@@@@@@@@@@@@@",
"@@  OOOOOOoo  @@@@@@@@@@@@@@@@@@",
"  ooOOOOOOOOoo              @@@@",
"  ooOOOOOOOOoo              @@@@",
"  ooooOOOOOOooooOOOOOOooooOO  @@",
"  ooooOOOOOOooooOOOOOOooooOO  @@",
"  ooooooOOooooOOOOoooooooooo    ",
"  ooooooOOooooOOOOoooooooooo    ",
"  oo    OOOOOOOOoo++  OOoooooo  ",
"  oo    OOOOOOOOoo++  OOoooooo  ",
"  oooo  ooOOOOOOOOoo  ooOOOOOOoo",
"  oooo  ooOOOOOOOOoo  ooOOOOOOoo",
"@@  oooo  ooOOOOOOOOOOOOOOoo  oo",
"@@  oooo  ooOOOOOOOOOOOOOOoo  oo",
"@@@@  oooo              ..XX..  ",
"@@@@  oooo              ..XX..  ",
"                  oooo  XXXX..  ",
"                  oooo  XXXX..  ",
"  oo                OO    XX  @@",
"  oo                OO    XX  @@",
"  oooo    oooooo    OOOOoo    @@",
"  oooo    oooooo    OOOOoo    @@",
"OOOO    ooooooooooOOOOOOoooo  @@",
"OOOO    ooooooooooOOOOOOoooo  @@",
"ooOOOOoooo      ooOOOOoooo  @@@@",
"ooOOOOoooo      ooOOOOoooo  @@@@"
};
