/* XPM */
static char *result[] = {
/* columns rows colors chars-per-pixel */
"32 32 8 1 ",
"  c black",
". c #06216A",
"X c #B19C00",
"o c #F0D405",
"O c #0877BB",
"+ c #25AAE1",
"@ c white",
"# c None",
/* pixels */
"################################",
"################################",
"################################",
"################################",
"################################",
"################################",
"################ ###############",
"############### + ##############",
"############ # +O # ############",
"########### + O++O + ###########",
"########## +.O++++O.+ ##########",
"########## +O++++++O+ ##########",
"######### +OOO++++OOO+ #########",
"######### OO.OO++OO.OO #########",
"##########  + .OO. +  ##########",
"#########  O+@ XX @+O  #########",
"######## .   +XooX+   . ########",
"####### O O+  oooo  +O O #######",
"#######  + ++ .oo. ++ +  #######",
"###### O ++ ++    O+ ++ O ######",
"###### O+ + ++@@@@++ + +O ######",
"#######  @  +++@@+++  @  #######",
"#########   +  @@O++   #########",
"##########  ++ OOO++  ##########",
"##########     ...  X ##########",
"##########        oo  ##########",
"###########          ###########",
"#############      #############",
"################################",
"################################",
"################################",
"################################"
};
