/* XPM */
static char *result[] = {
/* columns rows colors chars-per-pixel */
"32 32 8 1 ",
"  c black",
". c #06216A",
"X c #B19C00",
"o c #F0D405",
"O c #0877BB",
"+ c #25AAE1",
"@ c #F8F8F8",
"# c None",
/* pixels */
"################################",
"################################",
"################################",
"################################",
"################################",
"################################",
"################################",
"############### ################",
"############## + ###############",
"############ # O+ # ############",
"########### + O++O + ###########",
"########## +.O+OO+O.+ ##########",
"########## +O++++++O+ ##########",
"######### +.O++++++O.+ #########",
"######### OOOO++++OOOO #########",
"##########  OO++++OO  ##########",
"########## OO++++++OO  #########",
"######### +  O+OO+O ++  ########",
"######## ++ + O..O + ++O #######",
"######## O     OO       . ######",
"####### . O+ O ++ O  @@  + #####",
"###### +   + O ++ O  @@ + ######",
"####### + +  ++++++ +    #######",
"########      +  + + ###########",
"########## oo  ++     ##########",
"##########   X        ##########",
"###########          ###########",
"#############      #############",
"################################",
"################################",
"################################",
"################################"
};
