/* XPM */
static char *be107794e11c4935e981e0f6fc7074c76ftsshFPQ06o2hTB[] = {
/* columns rows colors chars-per-pixel */
"24 30 67 1 ",
"  c None",
". c #6D3C22",
"X c #723F24",
"o c #654129",
"O c #6B452B",
"+ c #6B452C",
"@ c #734024",
"# c #774327",
"$ c #78452A",
"% c #7C4628",
"& c #7D4729",
"* c #71492E",
"= c #704A2E",
"- c #724A2E",
"; c #7F4A2C",
": c #764D31",
"> c #774E31",
", c #784D31",
"< c #7E5235",
"1 c #804A2A",
"2 c #824C2B",
"3 c #834C2D",
"4 c #844D2D",
"5 c #854E2F",
"6 c #89502F",
"7 c #8B5130",
"8 c #8C5331",
"9 c #8D5232",
"0 c #8E5432",
"q c #855638",
"w c #895A3A",
"e c #8A5B3B",
"r c #905432",
"t c #905433",
"y c #915533",
"u c #935634",
"i c #965A35",
"p c #9B5B37",
"a c #915F3D",
"s c #9C5C39",
"d c #9D5E38",
"f c #9C5F38",
"g c #9E5F38",
"h c #A05F3A",
"j c #A3633C",
"k c #A5613C",
"l c #A6623C",
"z c #A8673E",
"x c #966340",
"c c #9C6642",
"v c #A06944",
"b c #AF6B41",
"n c #A86B48",
"m c #AD714C",
"M c #B2764F",
"N c #B77C53",
"B c #BB8056",
"V c #C08559",
"C c #F1AA45",
"Z c #F3AE4A",
"A c #F4B14E",
"S c #F4B553",
"D c #F5B957",
"F c #F6BD5A",
"G c #F6C05F",
"H c #F7C362",
"J c #F7C665",
/* pixels */
"                        ",
"    <<<<<<<<<<<<<<<<    ",
"   <exavvvvvvccccxca<   ",
"  <<q#2&X&#X2&&33&#e<<  ",
" <<e2rir3if&rr3iii6&<<< ",
" <<@i6ii3if&if&ifr6r3q< ",
" <q3i6ii3ij&if3ijr&f2a< ",
" <e3i6if3rj6if3ijr&j0a< ",
" <e6f4if3rf6if&fjr3jfx< ",
" <a6f4rf3iirij3ffi3j0c< ",
" <e6f1rf3iirij6ff63f6x< ",
" <a66&rf3frrijrffi&j6a< ",
" <a6f1rj3f6iijrbji3zfa< ",
" <arf1rj3firijrfii6fja< ",
" <arf1fj3jfriz6iii6jfe< ",
" <arj4jz7zfrij6irZ3jfq< ",
" +e6j8jj7zfr6j66SDFri,: ",
" +:6j8jj7zi6if6S##&H6*: ",
" +*6f8jz3zf6ii6A&6@D6*: ",
" +O3f6fj3zf6ii6&CGJ&3*: ",
" mV6f6fi3zfrii6f633i3BM ",
" nB6frii3zfiii6fiiri3Nn ",
" nNrfrii3jfiii6fiiri6Nn ",
" ++6i6ii3zfiji6fii6i6+o ",
" +*3r6ii3jrrzi3jii3r6<* ",
" +*3i6ii3jrfbi3jii3r#<* ",
" +:&i6ii3i3jzi3iii6i&<: ",
" *:&i6ii6irfii&iiiri&<: ",
" :<.3#####&&&&&33&&&.:: ",
" ;;$448rflllhlpuu4444;$ "
};
