/* XPM */
static char *a27d93f897884fa584c9c886a6e4087dkqwXpl5dZmwA8NPV[] = {
/* columns rows colors chars-per-pixel */
"64 64 75 1 ",
"  c #260000",
". c #2D0000",
"X c #330000",
"o c #3C0000",
"O c #440000",
"+ c #4B0000",
"@ c #530000",
"# c #5B0000",
"$ c #640000",
"% c #6B0000",
"& c #730000",
"* c #7B0000",
"= c #840000",
"- c #8C0000",
"; c #8A0800",
": c #930000",
"> c #9B0000",
", c #9D0A00",
"< c #A30000",
"1 c #AA0000",
"2 c #A30900",
"3 c #AB0B00",
"4 c #B40000",
"5 c #BB0000",
"6 c #B50D00",
"7 c #BC0E00",
"8 c #A71200",
"9 c #B41300",
"0 c #BA1200",
"q c #C30000",
"w c #CD0000",
"e c #C60A00",
"r c #D10000",
"t c #D40000",
"y c #D50500",
"u c #D90000",
"i c #D80700",
"p c #D20A00",
"a c #D60F00",
"s c #D90A00",
"d c #DC0A00",
"f c #DB0C00",
"g c #DF0C00",
"h c #CF1100",
"j c #C91500",
"k c #CD1500",
"l c #CE1900",
"z c #D31600",
"x c #D51600",
"c c #DA1700",
"v c #D01A00",
"b c #D41A00",
"n c #DD1800",
"m c #D81C00",
"M c #DF1E00",
"N c #E20F00",
"B c #E31100",
"V c #E51100",
"C c #E31500",
"Z c #E41600",
"A c #EA1600",
"S c #E31800",
"D c #E71800",
"F c #E01C00",
"G c #E71D00",
"H c #E91800",
"J c #EB1B00",
"K c #ED1A00",
"L c #F11B00",
"P c #F01C00",
"I c #F71F00",
"U c #E82000",
"Y c #ED2000",
"T c #F02100",
"R c #F52600",
/* pixels */
" X@*::--------------------==,lRINw1>-=-<5q4:--------------------",
".o@*----::::::::::---------:3vTLgw1>--:15q4>:-----::::--:::-----",
"O+#%*=-:<111111111>-------,6jcZViw4::>14qwq4<>---:2662-:>1>:----",
"##$$&*->4qqqqqqqq51:-----:6mGZsyrw4>:15wwwwq5<:--:0mm6:>451:----",
"%%&*==-<5wrwwwwrrw5<::-:>3jJPNrwww4>:15wwwrwq1:--:7GJj31qw5<::--",
"*=,99,:>5rtrrrrrrwq51>:,0vnCNiwwrw4>:>14qwrrq1:--:6aCnvhpwq51>:-",
"=:0MM0>>5wwwwwwwwwww5<:3bYJsrwwwwq4>--:15wrwq1:--:1qsJYJfwww51:-",
"->7SJz7645qwwwwwwwrrq1:3xKVywwwwq41:--->5wrwq1:--:1qyVKAdwwq4<:-",
"-:4pBDFk614qrrwwwwrrq1:<efsrwwwq1<::---<5wrwq1:--:1qrsgdyw51>::-",
"=-<5pZUv3:<5wwwwwwrwq1:>5wrwwrw5<:-----<5wrwq1:--:1qwrwwwq1:----",
"*=:14708;*-15qwrrrrrq1:>5wwwwrw5<------<5wtrq1:--:1qwrwq51>=****",
"%&=::;=*&%*:15wrrwrrq1:>5wrwwrw5<------<5wrwq1:--:1qwrw51:=&%%%%",
"$%&*=**&***=:15qqqq54>:>5wrwwwq4>====-->4qqq51:--:1qwrw5<-*%$$$$",
"$$%&*-><<>-**:1111<::--<5wrww51>=*&&*=-:<1111>:--:1qwrw5<-*%$$$$",
"$$$$*>5qq5>*&*-::-=&&*-<5wrwq1:=&%$%%*-:::::::---:1qwrw5<-*%$$$$",
"@@@#&:4qq51-=*****&$%&-<5wrrq<=&%$$$%*-----------:1qrtw5>=&%$$$$",
"oO+#&->11111<-&%%%$$%&-<5wtr5>*%$$$$%*-----------:1qrtw4-&%$$$$$",
".XO#%*-:-:154:*%%%%$%*-<5wrw4:%$$$$$%*=----------:1qwwq1=%$$$$$$",
" XO#%*=--->11<:::-*%%*-15ww51=%$$$$$%&*=---------:1qw51-&$$$$#++",
" XO#%*----::<14554:&%&-15w51-*%$$$$$$%%&=--------:1qq<=&%$$$#+oX",
" XO#%*------>4wttq<*$%*:151:*&$$$$$$$$$%*=-------:141=$@####@OX ",
" XO#%*------>4wuuw1*$@#&:<:*&%$$$$####$%&*=-------::=$+oOOOOoX. ",
" XO#%*------>4qrrq<*#Oo@&-=&$$$$$$#@@#$$$%*=------=&$+oXXXXXX...",
" Xo+#%*=----:14554:&#oXO$*&%$$$$$$#@@$%%$%&=-====*&%@OXXoOOoXX..",
"..XoO#%*=---:>><<>-&#OXo#%%$$$$$$$#+@%**%%&=-*&&&&%$#OXo#%#+oX..",
"....o+$&=------::-*%#OXo@$%$$$$$$$#@#&==&%&==*%$$$$$#OX+%=&#OoX.",
"..  X+$&=-:-------*%#OXo@$$$$$$$$$#@#&-=&%&==*%$$$$$#OX+&-*#OoX.",
".. .X+$&=---------*%#OXo@$$$$$$$$$#@#&==&%&==*%$$$$$#OX+&=&#OoX.",
".. .X+#%*=========*%@OXo+#$$##$$$#@+@%**%%&==&#@##$$#+O@&*&#OoX.",
"..  XO@$%&*******&%#@oXXO@@@@@@@@@OoO#&&%%*-=$+oOO@#$$$%&&$@OoX.",
"....XO+@$$%$$$$%%$#@OoXXO@@@@@@@@+OXo+$$$%*=*#oXXo+#%*=*&$#@OoX.",
"..XoO+@@@@@@@@@@@@+OoX.o#&&&&&&%$#OXXO@#$$%%$@OooO@%&*=*%$#@OoX.",
" Xo+@##@OooooooooooXX .+=111111>-&@o.Xo+#$#@++@@@@$*=*&%%$#@OoX.",
" XO#$$$@OXXXXXXXXX...Xo$>qwqqqq41-$O. Xo@#+oo+$%$%&==&%$$$#@OoX.",
" XO#%%$#+OOOOooXoX..o@&-145444444<*+X..XO+o.X@&******%$$$$@OoX..",
" XO#$%$$####@+OOOOXXO*111>>>>>>154-#OX..XXX.o#*--=*&%$$$$$@oX...",
".XO@#$$$$$$$$#@@@+oX+*14>------>44:$+oX....XO$=::-*%$$$$$#+X. ..",
"..Xo+#$%%$$$$$####OXO%-::------:1<-%@oX  .Xo+%-::-*%$$$$#@OX. ..",
"...Xo+#$$$$$$$$$$#+Xo@%*=------::-=%#OX  .XO@&=---*%$$$#@+oX....",
"..XoO+@#$$$$$$#$$#+XX+#&=---------*%#OX  XoO#%*===&%$$#@+OoX....",
".Xo++Oo+#$%$$#@@@@OXX+$&=---------*%#OX  Xo+@$%&&&%%$#@+oXX.....",
" XO##+oO@#$$#@+++OoXXO#%*---------*%#OX  XoO+##$$$$$#@+OX.......",
" XO#$#@@++@#@+OoooXXXo+#&*=-----:-*%#OX. .XoOO+++++++OoXX. .....",
" XO#%&&$+oO++OXXXXX..XoO#%*-----:-*%#OX ..XXXXXXXXXXXXXX........",
" XO#%*=&@OOOOo....... .o+#%*====-=*%@OX ...XXXXXXXXXXXXXXXX.....",
" XO#%&&&%$@OXX....... .Xo+#%*****&%#@oX  .XoOO++++++++++OoXX....",
".XO#$$%&**$o.............o+#%%$%$$#@OoX..XoO+@#$$$$$$$##@OoX....",
".Xo+@#$&**#o  .........  .o+@@@@@@+OoX..XoO+#$$$%$$$$%$$@+oX....",
"..XoO@$%&%@o. .......... .XooooooooXXX.XoO+#$$$$$$$$$%$$@+oX....",
"....o+$%%$+o. ..........XXXXXXXXX......XO+@$$$$$$$$$$$$#@OoX....",
"..  X+$%%$+X  .........XoOOOOOOoX.  . .XO+#$$$$$$$$$$$#@+oXX....",
".. .X+$%%$+X. ....... .o+######+o. ....XO+#$$$$$$$$$$#@OoX......",
"....XO@##@OX......... .o+#$$$%$@o......XO+#$$$$$$$$$#@+oX.......",
"....XoOOOOoX...........Xo+#$%%%#o. ....XO+#$$%%%%$$#@OoX........",
".....XXXXXX..............X+#$$$@o. ....XO+@#$$$$$$#@+oX.........",
"......    .............. .o+@@@+o......XoO+@@@@@@@+OoX..........",
"..........................XoooooX......XXXoooooooooXXX..........",
"...............................................X................",
"...........................    ...........         .............",
"................................................................",
"................................................................",
"................................................................",
"................................................................",
"................................................................"
};
