/* XPM */
static char *result[] = {
/* columns rows colors chars-per-pixel */
"32 32 139 2 ",
"   c #07152D",
".  c #0D172E",
"X  c #0F182E",
"o  c #12172E",
"O  c #13182E",
"+  c #19192E",
"@  c #0E1830",
"#  c #131931",
"$  c #1E1A30",
"%  c #231B2F",
"&  c #2C1E2F",
"*  c #311D2F",
"=  c #3C1F2F",
"-  c #231B31",
";  c #2D1B32",
":  c #331D33",
">  c #3B1E34",
",  c #3C2031",
"<  c #421E35",
"1  c #481F36",
"2  c #45222E",
"3  c #49222F",
"4  c #56232E",
"5  c #452231",
"6  c #4B2333",
"7  c #4E2038",
"8  c #542434",
"9  c #5D2832",
"0  c #542139",
"q  c #5C233A",
"w  c #6A272F",
"e  c #75292F",
"r  c #622933",
"t  c #6B2A33",
"y  c #63243B",
"u  c #6B263C",
"i  c #732C33",
"p  c #7B2C33",
"a  c #75263D",
"s  c #79273D",
"d  c #75293A",
"f  c #7C2B3B",
"g  c #693137",
"h  c #7F3034",
"j  c #723239",
"k  c #802E34",
"l  c #8D2F31",
"z  c #83293E",
"x  c #8D2B3F",
"c  c #932E3D",
"v  c #833035",
"b  c #8C3235",
"n  c #9C3535",
"m  c #94313B",
"M  c #9C333C",
"N  c #933E3D",
"B  c #9D3F3F",
"V  c #A33535",
"C  c #AC3634",
"Z  c #AC3936",
"A  c #A1333D",
"S  c #AC343E",
"D  c #B53A36",
"F  c #BD3C36",
"G  c #B4363D",
"H  c #B6393B",
"J  c #C43C37",
"K  c #CC3D37",
"L  c #C53B3D",
"P  c #CA3C3C",
"I  c #D43F37",
"U  c #D43E3E",
"Y  c #C74139",
"T  c #CF4038",
"R  c #DE4036",
"E  c #D44239",
"W  c #DC423B",
"Q  c #E54236",
"!  c #EC4437",
"~  c #E4443A",
"^  c #EA4639",
"/  c #E7483B",
"(  c #EC4C3E",
")  c #F04537",
"_  c #F04738",
"`  c #842940",
"'  c #8C2A40",
"]  c #942C42",
"[  c #9E2D43",
"{  c #A32E43",
"}  c #A43041",
"|  c #AE3144",
" . c #B63343",
".. c #BA3443",
"X. c #C53643",
"o. c #CB3941",
"O. c #8B4242",
"+. c #BF4B43",
"@. c #AF544D",
"#. c #B0534D",
"$. c #C54A42",
"%. c #DE5346",
"&. c #E84E41",
"*. c #F34F40",
"=. c #E05144",
"-. c #EC5344",
";. c #ED5E4E",
":. c #F55645",
">. c #F05F4E",
",. c #FD5A48",
"<. c #C96B5D",
"1. c #D26456",
"2. c #F4614F",
"3. c #EE6755",
"4. c #E66958",
"5. c #ED6D5A",
"6. c #F46553",
"7. c #FE6652",
"8. c #F06856",
"9. c #F66C58",
"0. c #F96E59",
"q. c #F4715D",
"w. c #F8745F",
"e. c #E27E6B",
"r. c #FF7962",
"t. c #EE856F",
"y. c #F4826C",
"u. c #FC856E",
"i. c #F48A72",
"p. c #FA8B73",
"a. c #EE947C",
"s. c #F7947B",
"d. c #F9977D",
"f. c #FC997F",
"g. c #F59D82",
"h. c #F89D82",
"j. c #F9A085",
"k. c #F9A88B",
"l. c None",
/* pixels */
"l.l.l.l.l.. . . X @ X X . . l.l.l.l.X X @ @ @ @ o o . l.l.l.l.l.",
"l.l.l.l.l.O o O # O @ O O X l.l.l.l.O O # # # # o o o l.l.l.l.l.",
"l.l.l.l.- % % % & % & % % % l.l.l.l.$ % $ - - - - $ - - l.l.l.l.",
"l.l.l.l., 3 5 6 8 3 3 3 2 , l.l.l.l.: : > > < > > > : : l.l.l.l.",
"l.l.- , 9 t i p v h p e w 4 = + $ ; < 0 q q y y q q 0 < : - l.l.",
"X O & 5 t v n Z D D C V l t 2 & $ : 1 u s ` ' ' z s y 0 > $ O . ",
". O % 3 i n F E ~ W E Y Z v 8 * ; < y z ] { { { [ c s q > % o . ",
". O % 6 p Z T / ( :.-.%.+.N g 6 5 0 d c |  .....| [ z q > + O o ",
". # - 6 p D E ( ,.7.w.5.1.@.O.j t p c S X.X.o.X. .{ ` y > - # . ",
". @ % 6 p Z E :.7.w.u.i.e.<.#.B M V D L o.o.o.o. .{ ` y > - o @ ",
"X O & 3 p C E -.0.u.f.j.a.e.1.$.J J K U U o.o.o. .[ ` q > - o o ",
". O % 3 i Z E -.q.p.j.k.g.t.4.%.~ I Q ~ ~ ~ o.o. .[ ` 0 > - o . ",
"X O % 3 p C E -.0.u.d.j.s.y.3.-.^ ! ! ! ~ W o.o. .[ ` q > - o . ",
". O & 6 p D E -.7.q.y.y.y.q.>.-.^ ) ! ^ ~ ~ o.o...{ ` y > $ # . ",
". # - 3 p Z E ( :.2.8.5.3.;.-.( ^ ^ ! ^ ^ ~ o.X...{ ` q > - # @ ",
". X % 6 p C T / ( ( -.-.-./ / / ^ ^ ^ ~ ^ ~ o.X. .[ s q > % # . ",
"X X % 3 g n F E W ~ ~ ~ ~ ~ ^ ~ ~ ~ ~ ~ W U o. .} ' a 0 > + O O ",
". O % 5 r h n Z J K Q Q ^ ! ^ ^ ~ ~ ~ W E L  .M ' a y 7 : % O X ",
"l.l.l., 3 r t v V F I ! ) ) ) ^ ~ ~ U U o.G } ` u 8 7 > ; l.l.l.",
"l.l.l.l.* , 5 9 h Z K ~ ^ ) ^ ~ ~ ~ U o...} z y 7 : ; - l.l.l.l.",
"l.l.l.l.l.+ % 5 9 b F E ~ ~ ~ ~ U U o...} c u 0 : % + l.l.l.l.l.",
"l.l.l.l.l.  + & 8 i n D Y E W W U P G } ' a q > - O . l.l.l.l.l.",
"l.l.l.l.l.l.X % 5 9 p b V H L P X...A z a q 5 : - o l.l.l.l.l.l.",
"l.l.l.l.l.l.l.l., 5 8 r i m S ..G } z u 7 > > - l.l.l.l.l.l.l.l.",
"l.l.l.l.l.l.l.l.l.& & , 8 d c { } x u 7 : - - l.l.l.l.l.l.l.l.l.",
"l.l.l.l.l.l.l.l.l.X O - > q a c x d q > % O . l.l.l.l.l.l.l.l.l.",
"l.l.l.l.l.l.l.l.l.l.. # ; 7 y a a y 7 : + . l.l.l.l.l.l.l.l.l.l.",
"l.l.l.l.l.l.l.l.l.l.l.l.- > 0 0 q 7 > ; l.l.l.l.l.l.l.l.l.l.l.l.",
"l.l.l.l.l.l.l.l.l.l.l.l.l.; : > > > ; l.l.l.l.l.l.l.l.l.l.l.l.l.",
"l.l.l.l.l.l.l.l.l.l.l.l.l.- + % $ + $ l.l.l.l.l.l.l.l.l.l.l.l.l.",
"l.l.l.l.l.l.l.l.l.l.l.l.l.l.O O O O l.l.l.l.l.l.l.l.l.l.l.l.l.l.",
"l.l.l.l.l.l.l.l.l.l.l.l.l.l.. . . . l.l.l.l.l.l.l.l.l.l.l.l.l.l."
};
