/* XPM */
static char *_141e8c6a9644fdcb82e89935f4993bfYLhYAdDeb8Lv9s5D[] = {
/* columns rows colors chars-per-pixel */
"64 64 113 2 ",
"   c #C70000",
".  c #CA0000",
"X  c #CD0C00",
"o  c #D40100",
"O  c #DD0000",
"+  c #D20900",
"@  c #DA0800",
"#  c #CD1100",
"$  c #D41300",
"%  c #DB1300",
"&  c #D31E00",
"*  c #DB1D00",
"=  c #E30100",
"-  c #EB0100",
";  c #E20E00",
":  c #F40000",
">  c #FF0100",
",  c #F10B00",
"<  c #FF0B00",
"1  c #E31D00",
"2  c #EE1B00",
"3  c #F31200",
"4  c #FF1400",
"5  c #F21E00",
"6  c #FF1D00",
"7  c #D72700",
"8  c #DF2600",
"9  c #DC2900",
"0  c #D73500",
"q  c #D93400",
"w  c #E22B00",
"e  c #E92E00",
"r  c #F02400",
"t  c #FF2300",
"y  c #FF2C00",
"u  c #E43500",
"i  c #EB3C00",
"p  c #F03600",
"a  c #FF3300",
"s  c #F73900",
"d  c #FF3B00",
"f  c #DD4200",
"g  c #DD5100",
"h  c #E24200",
"j  c #EB4200",
"k  c #E34D00",
"l  c #EE4A00",
"z  c #F24200",
"x  c #FF4300",
"c  c #F14F00",
"v  c #FF4B00",
"b  c #E95E00",
"n  c #F35100",
"m  c #FE5100",
"M  c #FF5300",
"N  c #FA5600",
"B  c #F75C00",
"V  c #FF5C00",
"C  c #E46300",
"Z  c #E46500",
"A  c #E86D00",
"S  c #F66400",
"D  c #F66700",
"F  c #FF6300",
"G  c #FE6400",
"H  c #F96900",
"J  c #FF6B00",
"K  c #FB6C00",
"L  c #FD6D00",
"P  c #E77500",
"I  c #EE7500",
"U  c #EF7A00",
"Y  c #EA7C00",
"T  c #F77400",
"R  c #FF7400",
"E  c #FF7500",
"W  c #F47900",
"Q  c #F47D00",
"!  c #F87B00",
"~  c #FF7800",
"^  c #FF7D00",
"/  c #F28300",
"(  c #FD8200",
")  c #FF8300",
"_  c #FB8B00",
"`  c #FF8C00",
"'  c #F09500",
"]  c #FF9300",
"[  c #FE9400",
"{  c #FA9B00",
"}  c #FF9900",
"|  c #FF9B00",
" . c #FB9C00",
".. c #F1A700",
"X. c #FBA200",
"o. c #FFA400",
"O. c #F4AC00",
"+. c #FFAB00",
"@. c #F7B000",
"#. c #FFB300",
"$. c #FFB600",
"%. c #FFB800",
"&. c #FFBB00",
"*. c #FFC300",
"=. c #FFCB00",
"-. c #FFCC00",
";. c #FFD300",
":. c #FDD600",
">. c #FFDC00",
",. c #FFE400",
"<. c #FFEB00",
"1. c #FFF300",
"2. c #FFFC00",
/* pixels */
". . . . .       . . . . . .             o - > : o .   . . . . .           . . . . . .     . . . . . . . . . . . . . .     . . . ",
". . . . . X # X . . . . . . . . . . . . o - < , O .   . . . . . X X X X X . . . . . . . . . . . . . . . . . . . . . . X X . . . ",
". . . . X 0 g f & .   . . o O = = = O O = 5 y r % . . . . . . $ q f h u 9 $ . . . . o O O o . . . . . . . . . . . . $ 9 9 $ . . ",
". . . . & Z ' Y 0 . . . o = : : : : : : 3 a v z * . . . . . . 7 b Q ! D l 8 + . . o O - - O . . . . . . . . . . . + 9 l l 9 + . ",
"o o + & f U  .Q u @ o o O - > > > > > < 6 d m z 1 o o . . $ 7 k Q [ ) H l 8 + . . o = : > - o o o o o o o o o o . + w l c u * $ ",
"- - e b I T G x 5 - - - - : > > > > 4 t y a a t 3 = O o $ f A / _ ) D j 9 $ . . . o = : > : - - - - - - - - - = o . $ 8 u i i i ",
"> 4 N { X.L a 4 < > > > > > > > > < t x x y 4 > > : = o 7 P @.#.] K j * + o o . . o = : > > > > > > > > > > > - O o . + * j B J ",
"y x ^ %.$.~ a 4 > > > > > < 4 4 4 t v L G a < > > > 3 u C ..;.=.} G p ; O O O O O = 2 y a y t t t 6 4 > > > > : - O @ % w c J E ",
"~ ) o.*.%.` V a 4 > > > < t a d a x E } ` v < > > < s W O.:.<.;.} G s , : : : : : , s J E G m v v x y < > > > > : : 2 i n D L E ",
"+.#.*.-.*.} E v t < > > 4 a M V V L [ %.o.V 4 > > 6 V o.:.1.1.;.} L d 6 > > > > > < x ^ [ ) E E E G x 6 < > < < > 4 a V E E L L ",
"$.%.-.>.-.o.E V x y 4 > 4 v ) ] ` [ #.=.+.V 4 > 6 x E +.;.1.2.:.} L v d t 4 > > > < y m L ^ ` ] ] ) F d y y y y y a m ^ ` ^ L J ",
"#.%.;.<.>.+.~ G V m y < 6 G o.%.%.%.=.-.+.m 4 4 d G ) } %.,.1.;.} L F V v t > > > > < 6 d L } +.+.} ) G V m V m m V ~ } } ) E J ",
"+.%.;.1.<.%.` ~ ~ E m a x ^ $.=.*.*.;.;.#.G y y m ~ ) ` o.=.,.;.+.` ) ^ G x 6 < > > > 4 d E o.%.%.#.o.] ) ) ) ) ) ` o.$.#.} ) E ",
"+.%.;.1.1.;.+.} ] ` ) ^ ) } #.$.$.%.;.,.-.) v x F ~ ^ ) ] +.*.=.*.%.+.} ^ F x t < > 6 d G [ %.*.*.*.%.&.$.+.o.+.#.%.=.;.=.$.} ] ",
"+.%.;.<.1.,.=.$.o.} o.#.#.+.} } } o.=.<.>.+.E J E ~ ~ ~ ) ` o.%.>.<.;.#.[ ) J x 6 4 d E } $.*.=.=.=.;.>.>.;.*.-.:.,.<.<.>.*.#.+.",
"#.$.=.>.<.<.,.-.#.} } } [ ` ) ) ) ` +.;.:.*.o.} [ ] ) ^ ^ ) [ %.,.2.<.;.$.} ) G x x L o.*.*.*.*.*.*.:.<.<.,.>.>.,.<.<.1.,.;.*.%.",
"#.$.%.*.;.,.<.>.%.} E V v V G G G L ` +.*.;.;.-.*.#.} ` ) ` } %.,.2.2.<.;.$.} ) ~ ^ o.;.,.-.%.#.#.&.;.<.1.<.,.,.:.:.,.<.<.:.=.*.",
"#.#.#.#.*.,.1.,.*.} L d y x m V V F E ` +.=.<.<.,.-.$.} ] ] } $.:.1.2.2.<.-.$.o.} +.*.,.<.;.%.$.#.%.=.>.<.<.<.,.;.;.:.,.,.:.-.=.",
"#.#.+.+.&.:.<.,.-.#.) V v V J J J L L E ` +.;.,.<.,.-.$.o.} } o.%.;.<.2.2.<.;.*.+.+.%.;.:.;.-.=.-.-.=.=.-.:.>.:.;.-.;.:.>.;.-.-.",
"#.#.#.#.%.-.:.:.;.*.+.] ) ) ) ) ) ^ E G L ` +.=.,.1.,.-.%.o.} [ } +.=.<.2.2.1.;.#.} o.#.&.;.>.,.,.>.=.$.#.%.-.;.-.-.-.;.;.-.-.-.",
"#.#.#.#.$.%.*.*.*.%.+.} ] ` ` ` ` ` ~ J J ~ ] #.;.<.<.>.-.$.o.[ ] } %.>.1.1.1.>.&.o.} o.+.*.:.,.,.:.*.o.o.+.&.*.*.*.*.=.=.*.*.*.",
"#.#.#.#.+.o.} } } } ` ) ^ ) ` ] ] ` ) ^ ~ ~ ) [ #.=.>.<.,.=.#.o.o.o.#.*.-.;.:.:.;.*.#.o.o.+.&.*.*.%.+.} } o.+.+.+.#.%.*.*.%.#.+.",
"$.$.$.$.+.} ` ) ) ^ E G J ~ ` ] ] ] ] ] ` ) ) ) [ +.=.<.<.;.%.%.%.%.#.+.+.$.*.-.>.>.*.+.} } o.o.o.o.} } } } } } } o.$.*.*.#.o.} ",
"$.$.$.$.+.} ` ) ) ^ E L L ^ ` ] ] ] [ } } ] ` ) ) [ %.,.<.:.=.*.-.-.*.#.o.+.+.%.;.:.*.+.} [ } [ [ } } } } } } } o.+.#.%.$.+.} [ ",
"$.$.$.#.#.+.o.} [ ` ) ^ ) ` ] [ ] [ } } } } } ] ) ) +.-.:.;.-.;.,.,.;.*.#.o.} +.*.=.%.o.} [ } } } } } } } } } o.$.%.$.+.o.} } } ",
"$.$.#.#.$.$.$.+.o.[ ] ` ` ] ] [ [ [ } } o.+.+.} ) ^ } %.;.;.;.>.1.1.,.-.$.o.[ } #.%.#.o.} } } } } } } } } } } +.&.*.$.o.} } } } ",
"$.#.$.$.%.%.%.$.o.[ ] ] ] ] [ [ [ [ } } o.+.+.} ) ^ } %.;.;.;.,.1.2.<.;.%.o.] } +.%.#.o.} } } } } } } } } } } +.*.=.%.o.} } } } ",
"$.$.#.$.$.%.%.#.o.[ ] ` ` ] [ [ [ [ } } o.+.+.} ) ^ } %.;.;.;.,.1.2.<.;.%.o.[ } +.%.#.o.} } } } } } } } } } } +.&.*.%.o.} } } } ",
"$.$.+.o.o.o.+.o.o.} } [ ] ] ` ` ` ` ] [ } o.+.} ) ~ ` +.%.*.=.>.1.2.,.-.$.o.[ } +.$.+.} ] ` ` ` ` ` [ } } } } o.%.%.#.o.} } } } ",
"%.$.o.` ) ) ` [ o.+.+.o.} ` ) ^ ^ ^ ^ ) ` } o.} ^ E ~ ` } +.&.;.1.2.,.=.#.o.} } o.+.} ) ^ E E E E ~ ) [ } } } o.+.+.+.} } } } } ",
"$.+.] E G F G ^ } #.#.+.} ) E J L L L L ~ ` } ] ~ J G L ^ [ #.;.<.1.>.&.+.} } } o.} ` E J G F V V G ~ ` } } } } } } } } } } } } ",
"` ` ^ L F M m F ^ ] [ ] ` E G V V F V V J ~ ) ^ L F F L ~ } $.=.;.;.&.o.} ] ` ` ] ` ) E G F V V V V L ) ` ` ` ` ) ` ] } } ] ` ` ",
"V V G E J m x x m V G L L F V m m m M M V F G F V V F L ) o.*.*.#.o.] ` ) ^ ^ ^ ^ ^ ~ E L G F V V F G L E E E E E E ) ] [ ) E E ",
"a d m J J m d a a d x v m m M m m m M M M V V V V V J E ` +.%.+.] ~ L L L J J L L L E E E L F F F F F F F F F F F G ~ ` ` ~ G F ",
"y a x m V m x x d x x v M V F G G G G G L L E E L L E ^ ) [ } ` E V V V V V V V F G E ~ ~ L G F F F F V V F F F V G L ^ ^ E G V ",
"a a d d x v v m m m m M V L E E E E E E ^ ` ] ` ) ~ ~ ^ ^ E L F m v v v v v v m m V L ~ ~ L G F F F F F F F F F F F G J J G F F ",
"a a a a d x v m m m m m M F L E E E L L E ) ` ) ~ E L L J V m v x x x x x d x x v m F L E J F F F F F F F V V V V V V V V V V V ",
"a a a a a d x x x x x x x v m M m m m m m V V V m v v v v x d d d d d d d a a a d x v V F F F F F F F F V m v x x x x x x x x x ",
"a a a a a a a a a a a a a d d d d d d d d x x x x d d d d d d d a a a a a a a a a d x v m V V V V V F F V v d a a a a a a a a a ",
"a a a a a a a a a a a a a a d d d d x m V G L L L J G F V m v x d a a a a x v v v v m V V V m m m m m m v x a a a a a a a a a a ",
"a a a a a a a a a a a a a d x x x v G ) [ o.#.%.%.$.+.o.] ) L M x a y a d m G J J J L E J m x d x x x x d d a a a a a a a a a a ",
"a a a a a a a a a a a a d x v v v m E [ +.*.-.;.;.;.=.%.+.] ~ V x a y a d V L E E E E E J m d a a a a a a a a a a a a a a a a a ",
"a a a a a a a a y y y y a d d d d x V E ) ] } o.o.} } ] ) E F m x a a a d v V F F F F F m x a y y y y y y a a a a a a a a a a a ",
"a a a a a a a a a a a a a a a a a d d x v m m m M M m m v v x d a a a a a d x x x x x x d d a a a a a a a a a a a a a a a a a a ",
"a a a d d d d x v m m m m m m m m m m v x x d a d a a a a a a a a a a a a a a a a a a a a d x x x x x x x x x x x x x x d d a a ",
"a a d x v x v V ~ ` [ [ [ [ [ [ [ ] ` ) E V v x x x d a y y y y a a a a a a a a a a y a d v V F F F V V V V V V V V V F V x a a ",
"a a x v m m m E } $.*.*.*.*.*.*.*.%.%.+.[ E V m m m x d a a a a a a a a a a a a a a a a d V L E E E E E E ~ ~ ~ ~ E ~ E J v d a ",
"a a d v v v m J ` o.+.+.+.+.o.+.+.o.} [ ) J m v v m v x x x x x x v v v x d a a a a y a d m F L J J E ^ ) ` ` ` ` ` ^ E V v d a ",
"a a d d d d x v V J J G G F F F G F V V m v x x x v m M V V V V F G G G V v d a a a y a a d x x x v F ~ ) ] } } } [ ~ V x d a a ",
"a a a a a a a a d d d a a a a a a a a a d d x v v M F E E E E ~ ^ ) ) ) ~ G v x x d d d d d d d d x m L ^ ` [ } } ` L x a a a a ",
"a a a a a a a a a a y y y y a a a a a a x M L E E ~ ) [ } } } o.o.o.+.o.} ` ~ E L J F V V V F G G F F V F L E E E L m d a a a a ",
"a a a a a a a a a a a a a d d d d d d x M E ] } } } +.%.%.*.%.*.*.*.*.*.%.+.} } } [ ) ~ E ) ` ] ] ) L v x x x v v x d a a a a a ",
"a a a a a a a a a a a a d d d d d x x v V ~ [ } } } +.$.%.%.%.%.&.%.*.%.%.+.} [ } ] ) E E ) ` ] ] ) G x a y a a a a a a a a a a ",
"a a a a a a a a a a a a a d d d d d d x v G ~ ^ ^ ) ) ` [ } } } } } o.} [ ) E L L J F V V F G J J F v d y y y y a a a a a a a a ",
"a a a a a a a a a a a a a a a a a a a a d x m m M V V F G L E E E E E E L m x d d d d d d d d d d d d a a a a a a a a a a a a a ",
"t t y a a a a a a a a a a a a a a a y t t y a a a a d d d x v v v v v v x a t 6 6 t t t t t t 6 6 t a d x x x d y t t t t t t t ",
"< 4 6 y a a a a a a a a a a a a a y t 4 4 4 4 4 4 4 4 6 6 6 6 6 6 6 t 6 6 4 < < < < < < < < < < < 4 y v V F V x t 4 < < < < < < ",
"> > 4 y a a a a a a a a a a a a a y 6 < > > > > > > > > > > > > > > > > > > > > > > > > > > > > > < a V L E L v t > > > > > > > ",
"> > 4 y a a a a a a a a a a a a a a 6 < > > > > > > > > > > > > > > > > > > > > > > > > > > > > > < a V E ^ E m t > > > > > > > ",
"> > 4 y a a a a a a a a a a a a a y 6 < > > > > > > > > > > > > > > > > > > > > > > > > > > > > > < a V E E L v t > > > > > > > ",
"> > 4 t y y y y y y y y y y y y y t 4 < > > > > > > > > > > > > > > > > > > > > > > > > > > > > > < t v V V m d 6 > > > > > > > ",
"> > < 4 4 4 4 4 4 4 4 4 4 4 4 4 4 4 < > > > > > > > > > > > > > > > > > > > > > > > > > > > > > > > 4 t y a y t < > > > > > > > ",
"> > > > > > > > > > > > > > > > > > > > > > > > > > > > > > > > > > > > > > > > > > > > > > > > > > > < < < < > > > > > > > > > ",
"> > > > > > > > > > > > > > > > > > > > > > > > > > > > > > > > > > > > > > > > > > > > > > > > > > > > > > > > > > > > > > > > "
};
