/* XPM */
static char *result[] = {
/* columns rows colors chars-per-pixel */
"32 32 173 2 ",
"   c #141021",
".  c #151021",
"X  c #161122",
"o  c #161222",
"O  c #161223",
"+  c #171223",
"@  c #171323",
"#  c #171324",
"$  c #181324",
"%  c #1A1527",
"&  c #1A1727",
"*  c #1A1728",
"=  c #1C172A",
"-  c #1B182C",
";  c #1D1A2D",
":  c #1E1B31",
">  c #1E1D31",
",  c #1F1E34",
"<  c #201E34",
"1  c #201E35",
"2  c #201F35",
"3  c #211F35",
"4  c #212036",
"5  c #232036",
"6  c #232236",
"7  c #242339",
"8  c #252339",
"9  c #27253B",
"0  c #27263B",
"q  c #27263C",
"w  c #28263C",
"e  c #29273C",
"r  c #29273D",
"t  c #29273E",
"y  c #252640",
"u  c #262741",
"i  c #2E2C41",
"p  c #323043",
"a  c #343144",
"s  c #343244",
"d  c #32324C",
"f  c #32324D",
"g  c #34344E",
"h  c #2E3151",
"j  c #2F3252",
"k  c #303353",
"l  c #313555",
"z  c #313657",
"x  c #323658",
"c  c #323759",
"v  c #33385A",
"b  c #353A5D",
"n  c #373B5D",
"m  c #394066",
"M  c #3A4167",
"N  c #3D456E",
"B  c #3D466E",
"V  c #3F476F",
"C  c #3E4771",
"Z  c #3F4872",
"A  c #3F4973",
"S  c #3F4974",
"D  c #404567",
"F  c #43476A",
"G  c #484A69",
"H  c #494B6B",
"J  c #4A4C6A",
"K  c #4A4C6D",
"L  c #4A4D6E",
"P  c #4B4E6F",
"I  c #404973",
"U  c #404974",
"Y  c #404A74",
"T  c #414A74",
"R  c #414A75",
"E  c #414B75",
"W  c #424B75",
"Q  c #414B76",
"!  c #424B76",
"~  c #434B76",
"^  c #444C77",
"/  c #444D77",
"(  c #4B4F71",
")  c #444E79",
"_  c #4D5073",
"`  c #4F5274",
"'  c #4D557F",
"]  c #505375",
"[  c #505477",
"{  c #4D5580",
"}  c #4E5680",
"|  c #4E5681",
" . c #4F5782",
".. c #4F5883",
"X. c #515983",
"o. c #525A85",
"O. c #535B87",
"+. c #606382",
"@. c #72748D",
"#. c #606791",
"$. c #606890",
"%. c #616890",
"&. c #616993",
"*. c #626992",
"=. c #636A94",
"-. c #646B95",
";. c #656D98",
":. c #666D98",
">. c #676E98",
",. c #686F99",
"<. c #6B7092",
"1. c #6C7093",
"2. c #6A7096",
"3. c #697099",
"4. c #69709A",
"5. c #6A719B",
"6. c #6C7298",
"7. c #6A729C",
"8. c #6B729D",
"9. c #6C739E",
"0. c #777890",
"q. c #777990",
"w. c #787A91",
"e. c #70779F",
"r. c #777DA2",
"t. c #767DA3",
"y. c #777DA3",
"u. c #757CA4",
"i. c #787EA4",
"p. c #797FA4",
"a. c #7A80A4",
"s. c #7A80A5",
"d. c #7C82A7",
"f. c #7D83A7",
"g. c #7D83A8",
"h. c #7E84A9",
"j. c #898EB0",
"k. c #888EB1",
"l. c #898EB1",
"z. c #898FB1",
"x. c #8A8FB0",
"c. c #8E93B4",
"v. c #8F94B4",
"b. c #8E94B5",
"n. c #9095B5",
"m. c #9196B6",
"M. c #9297B6",
"N. c #9398B9",
"B. c #999DBB",
"V. c #999EBB",
"C. c #9B9FBC",
"Z. c #9A9FBE",
"A. c #9BA0BF",
"S. c #9DA1BE",
"D. c #9DA2BE",
"F. c #9EA2BE",
"G. c #9EA2BF",
"H. c #A0A4C0",
"J. c #A0A5C0",
"K. c #A1A5C1",
"L. c #A2A6C2",
"P. c #A3A7C2",
"I. c #A4A8C2",
"U. c #A4A8C3",
"Y. c #A5A8C3",
"T. c #A5A9C3",
"R. c #A5A9C4",
"E. c #A4A8C5",
"W. c #A6AAC4",
"Q. c #A7AAC4",
"!. c #A7ABC6",
"~. c #A8ACC7",
"^. c None",
/* pixels */
"^.^.^.^.^.^.^.^.^.X O .                 . O X ^.^.^.^.^.^.^.^.^.",
"^.^.^.^.^.^.^.^.5 w i p s a a a a a a s p i w 5 ^.^.^.^.^.^.^.^.",
"^.^.^.^.^.^.^.& f P +.@.w.q.0.0.0.0.q.w.@.+.P f & ^.^.^.^.^.^.^.",
"^.^.^.^.^.^.; r G 6.k.S.T.P.P.P.P.P.P.T.S.k.6.G r ; ^.^.^.^.^.^.",
"^.^.^.^.^.= d K <.x.A.E.~.!.!.!.!.!.!.~.E.A.x.<.K d = ^.^.^.^.^.",
"^.^.^.^.= e H 6.l.D.U.P.P.P.P.P.P.P.P.P.P.U.D.l.6.H e = ^.^.^.^.",
"^.^.^.; d H <.z.Z.P.T.P.P.P.P.P.P.P.P.P.P.T.P.Z.z.<.H d ; ^.^.^.",
"^.^.& r K 6.z.F.I.P.P.P.P.P.P.P.P.P.P.P.P.P.P.I.F.z.6.K r & ^.^.",
"^.6 g J 1.l.Z.I.T.P.P.P.P.P.P.P.P.P.P.P.P.P.P.T.I.Z.l.1.J g 6 ^.",
"X 0 L 2.j.D.P.P.P.P.P.P.P.P.P.P.P.P.P.P.P.P.P.P.P.P.D.j.2.L 0 X ",
"+ t [ u.N.R.Q.P.P.P.P.P.P.P.P.P.P.P.P.P.P.P.P.P.P.Q.R.N.u.[ t + ",
"o q _ e.b.K.T.P.P.P.P.P.P.P.P.P.P.P.P.P.P.P.P.P.P.T.K.b.e._ q o ",
"o 8 F *.d.n.S.P.Y.P.P.P.P.P.P.P.P.P.P.P.P.P.P.Y.P.S.n.d.*.F 8 o ",
"+ 3 n ' &.t.v.K.T.P.P.P.P.P.P.P.P.P.P.P.P.P.P.T.K.v.t.&.' n 3 + ",
"@ , c ~ ..#.s.m.D.P.U.P.P.P.P.P.P.P.P.P.P.U.P.D.m.s.#...~ c , @ ",
"@ < v I ) ' $.y.c.J.R.P.P.P.P.P.P.P.P.P.P.R.J.c.y.$.' ) I v < @ ",
"@ 2 v I S W | #.a.M.G.L.U.U.U.U.U.U.U.U.L.G.M.a.#.| W S I v 2 @ ",
"@ 2 v I Y I ^ ' $.i.c.H.W.T.T.T.T.T.T.W.H.c.i.$.' ^ I Y I v 2 @ ",
"@ 2 v I R I Z W } #.p.M.C.V.B.B.B.B.V.C.M.p.#.} W Z I R I v 2 @ ",
"@ 2 v I E I Z I / { %.r.h.g.f.f.f.f.g.h.r.%.{ / I Z I E I v 2 @ ",
"@ 2 v I E I I I Z W X.-.5.4.3.3.3.3.4.5.-.X.W Z I I I E I v 2 @ ",
"$ 4 b E ! I I I C I  .&.,.>.:.:.:.:.>.,.&. .I C I I I ! E b 4 $ ",
"@ 1 z N I I I I Z T X.=.4.,.,.,.,.,.,.4.=.X.T Z I I I I N z 1 @ ",
"^.> u j M R Q I Z T X.=.4.,.,.,.,.,.,.4.=.X.T Z I Q R M j u > ^.",
"^.^.% 1 l B U I Z T X.=.4.,.,.,.,.,.,.4.=.X.T Z I U B l 1 % ^.^.",
"^.^.^.- u k M U U R X.=.4.,.,.,.,.,.,.4.=.X.R U U M k u - ^.^.^.",
"^.^.^.^.* < k B A T X.=.4.,.,.,.,.,.,.4.=.X.T A B k < * ^.^.^.^.",
"^.^.^.^.^.* u l m T O.;.9.8.7.7.7.7.8.9.;.O.T m l u * ^.^.^.^.^.",
"^.^.^.^.^.^.- 1 h V o.=.4.,.,.,.,.,.,.4.=.o.V h 1 - ^.^.^.^.^.^.",
"^.^.^.^.^.^.^.% y x D ( ] ` ` ` ` ` ` ] ( D x y % ^.^.^.^.^.^.^.",
"^.^.^.^.^.^.^.^.: 2 7 9 w w w w w w w w 9 7 2 : ^.^.^.^.^.^.^.^.",
"^.^.^.^.^.^.^.^.^.@ # o o o o o o o o o o # @ ^.^.^.^.^.^.^.^.^."
};
