/* XPM */
static char *_a9568a931684a6b85c619f23b66d090XRHWdlW8Z1X7xFzz[] = {
/* columns rows colors chars-per-pixel */
"32 32 10 1 ",
"  c None",
". c #1A1517",
"X c #2E2725",
"o c #423934",
"O c #5A4E44",
"+ c #796655",
"@ c #A08662",
"# c #C7B08B",
"$ c #E4D2AA",
"% c #E3E6FF",
/* pixels */
"                                ",
"                                ",
"                                ",
"                                ",
"                                ",
"                                ",
"                                ",
"                                ",
"                                ",
"           .........            ",
"          .#$$%$$##O.           ",
"         .@$%$%$%%#@O.          ",
"        .@##$%$$$$##@O.         ",
"        .O###$$$###OOo.         ",
"        .OO@+@+@@+@OOo.         ",
"       .OO@++++++@+OOo.         ",
"       .OO+O++++++OoOoo.        ",
"       .oOOOO+++++OOooo.        ",
"       .ooOO++++oOooooX.        ",
"       .XoooOoOoOOOooXX.        ",
"        .XXoooXXXoooXX.         ",
"         .............          ",
"                                ",
"                                ",
"                                ",
"                                ",
"                                ",
"                                ",
"                                ",
"                                ",
"                                ",
"                                "
};
